#N canvas 785 241 450 286 10;
#X obj 79 204 dac~;
#X obj 77 67 osc~;
#X obj 289 204 dac~;
#X obj 288 65 osc~;
#X obj 78 121 clip~ -0.2 0.2;
#X obj 289 121 clip~ -0.2 0.2;
#X obj 79 161 bp~ 1500 4;
#X obj 289 161 bp~ 1500 4;
#X obj 77 33 r Freq_1;
#X obj 288 31 r Freq_2;
#X connect 1 0 4 0;
#X connect 3 0 5 0;
#X connect 4 0 6 0;
#X connect 5 0 7 0;
#X connect 6 0 0 0;
#X connect 6 0 0 1;
#X connect 7 0 2 1;
#X connect 7 0 2 0;
#X connect 8 0 1 0;
#X connect 9 0 3 0;
