#N canvas 295 139 450 449 10;
#X obj 92 141 f 0;
#X obj 137 141 + 1;
#X obj 92 177 mod 2;
#X obj 92 213 sig~;
#X obj 91 293 *~;
#X obj 90 382 dac~;
#X text 169 253 *controlling the pitch*;
#X text 135 335 *controlling the amplitude*;
#X obj 92 54 tgl 15 1 empty empty empty 17 7 0 10 -262144 -1 -1 1 1
;
#X text 157 102 *controlling the tempo*;
#X obj 92 103 metro;
#X obj 105 253 osc~;
#X obj 91 336 *~;
#X obj 190 64 r Metro;
#X obj 194 212 r Osc;
#X obj 196 306 r Amp;
#X connect 0 0 1 0;
#X connect 0 0 2 0;
#X connect 1 0 0 1;
#X connect 2 0 3 0;
#X connect 3 0 4 0;
#X connect 4 0 12 0;
#X connect 8 0 10 0;
#X connect 10 0 0 0;
#X connect 11 0 4 1;
#X connect 12 0 5 1;
#X connect 12 0 5 0;
#X connect 13 0 10 1;
#X connect 14 0 11 0;
#X connect 15 0 12 1;
