#N canvas 960 256 817 345 10;
#X obj 166 45 r lowFrequency;
#X obj 166 75 r highFrequency;
#X obj 179 234 r Amplitude;
#N canvas 759 286 684 518 logosc 0;
#X obj 193 184 sig~ 2.71828;
#X obj 168 137 sig~ 1;
#X obj 168 161 -~;
#X obj 75 209 pow~;
#X obj 97 183 sig~ 2.71828;
#X obj 59 289 +~;
#X obj 130 63 *~ 2;
#X obj 75 132 sig~ 1;
#X obj 75 159 -~;
#X obj 184 112 -~ 1;
#X obj 59 237 sig~ 1;
#X obj 59 263 -~;
#X obj 59 335 outlet~ signal;
#X obj 59 313 -~ 1;
#X obj 91 111 min~ 1;
#X obj 184 89 max~ 1;
#X obj 130 41 phasor~ 3;
#X obj 167 228 sqrt~;
#X obj 130 17 inlet~ frequency;
#X obj 168 206 pow~;
#X connect 0 0 19 1;
#X connect 1 0 2 0;
#X connect 2 0 19 0;
#X connect 3 0 11 1;
#X connect 4 0 3 1;
#X connect 5 0 13 0;
#X connect 6 0 14 0;
#X connect 6 0 15 0;
#X connect 7 0 8 0;
#X connect 8 0 3 0;
#X connect 9 0 2 1;
#X connect 10 0 11 0;
#X connect 11 0 5 0;
#X connect 13 0 12 0;
#X connect 14 0 8 1;
#X connect 15 0 9 0;
#X connect 16 0 6 0;
#X connect 17 0 5 1;
#X connect 18 0 16 0;
#X connect 19 0 17 0;
#X restore 49 27 pd logosc;
#N canvas 1176 463 450 300 logosc 0;
#X obj 193 184 sig~ 2.71828;
#X obj 168 137 sig~ 1;
#X obj 168 161 -~;
#X obj 75 209 pow~;
#X obj 101 183 sig~ 2.71828;
#X obj 59 289 +~;
#X obj 130 63 *~ 2;
#X obj 75 132 sig~ 1;
#X obj 75 159 -~;
#X obj 184 112 -~ 1;
#X obj 59 237 sig~ 1;
#X obj 59 263 -~;
#X obj 59 335 outlet~ signal;
#X obj 59 313 -~ 1;
#X obj 91 111 min~ 1;
#X obj 184 89 max~ 1;
#X obj 130 41 phasor~ 3;
#X obj 167 228 sqrt~;
#X obj 130 17 inlet~ frequency;
#X obj 168 206 pow~;
#X connect 0 0 19 1;
#X connect 1 0 2 0;
#X connect 2 0 19 0;
#X connect 3 0 11 1;
#X connect 4 0 3 1;
#X connect 5 0 13 0;
#X connect 6 0 14 0;
#X connect 6 0 15 0;
#X connect 7 0 8 0;
#X connect 8 0 3 0;
#X connect 9 0 2 1;
#X connect 10 0 11 0;
#X connect 11 0 5 0;
#X connect 13 0 12 0;
#X connect 14 0 8 1;
#X connect 15 0 9 0;
#X connect 16 0 6 0;
#X connect 17 0 5 1;
#X connect 18 0 16 0;
#X connect 19 0 17 0;
#X restore 47 126 pd logosc;
#X obj 48 62 *~;
#X obj 47 92 +~;
#N canvas 554 483 450 300 plastichorn 0;
#X obj 118 130 bp~ 1500 4;
#X obj 118 105 clip~ -0.2 0.2;
#X obj 118 80 inlet~;
#X obj 118 155 outlet~;
#X connect 0 0 3 0;
#X connect 1 0 0 0;
#X connect 2 0 1 0;
#X restore 47 166 pd plastichorn;
#N canvas 997 476 603 327 environment 0;
#X obj 272 267 delwrite~ d2 1000;
#X obj 386 267 delwrite~ d3 1000;
#X obj 158 266 delwrite~ d1 1000;
#X obj 274 207 *~ 0.1;
#X obj 386 169 delread~ d3 33;
#X obj 274 169 delread~ d2 121;
#X obj 162 169 delread~ d1 165;
#X obj 114 331 +~;
#X obj 114 355 outlet~;
#X obj 276 30 inlet~;
#X obj 75 305 *~ 0.7;
#X obj 164 306 *~ 0.5;
#X obj 159 240 +~;
#X obj 273 236 +~;
#X obj 385 245 +~;
#X connect 3 0 11 0;
#X connect 3 0 12 0;
#X connect 3 0 13 0;
#X connect 3 0 14 0;
#X connect 4 0 3 0;
#X connect 5 0 3 0;
#X connect 6 0 3 0;
#X connect 7 0 8 0;
#X connect 9 0 10 0;
#X connect 9 0 12 1;
#X connect 9 0 13 1;
#X connect 9 0 14 1;
#X connect 10 0 7 0;
#X connect 11 0 7 1;
#X connect 12 0 2 0;
#X connect 13 0 0 0;
#X connect 14 0 1 0;
#X restore 48 209 pd environment;
#X obj 49 251 *~;
#X obj 49 293 dac~;
#X obj 170 10 r sirenRate;
#X obj 49 -22 loadbang;
#X msg 49 1 0.2;
#X connect 0 0 5 1;
#X connect 1 0 6 1;
#X connect 2 0 9 1;
#X connect 3 0 5 0;
#X connect 4 0 7 0;
#X connect 5 0 6 0;
#X connect 6 0 4 0;
#X connect 7 0 8 0;
#X connect 8 0 9 0;
#X connect 9 0 10 0;
#X connect 9 0 10 1;
#X connect 11 0 3 0;
#X connect 12 0 13 0;
#X connect 13 0 3 0;
