#N canvas 593 276 817 345 10;
#X obj 166 45 r lowFrequency;
#X obj 166 75 r highFrequency;
#X obj 179 234 r Amplitude;
#N canvas 891 182 684 518 logosc 0;
#X obj 193 184 sig~ 2.71828;
#X obj 168 137 sig~ 1;
#X obj 168 161 -~;
#X obj 75 209 pow~;
#X obj 97 183 sig~ 2.71828;
#X obj 61 323 +~;
#X obj 130 63 *~ 2;
#X obj 75 132 sig~ 1;
#X obj 75 159 -~;
#X obj 184 112 -~ 1;
#X obj 61 271 sig~ 1;
#X obj 61 297 -~;
#X obj 61 369 outlet~ signal;
#X obj 61 347 -~ 1;
#X obj 91 111 min~ 1;
#X obj 184 89 max~ 1;
#X obj 130 41 phasor~ 3;
#X obj 167 228 sqrt~;
#X obj 168 206 pow~;
#X obj 129 17 sig~;
#X obj 129 -7 inlet frequency;
#X obj 76 240 pow~;
#X obj 114 224 sig~ 1;
#X connect 0 0 18 1;
#X connect 1 0 2 0;
#X connect 2 0 18 0;
#X connect 3 0 21 0;
#X connect 4 0 3 1;
#X connect 5 0 13 0;
#X connect 6 0 14 0;
#X connect 6 0 15 0;
#X connect 7 0 8 0;
#X connect 8 0 3 0;
#X connect 9 0 2 1;
#X connect 10 0 11 0;
#X connect 11 0 5 0;
#X connect 13 0 12 0;
#X connect 14 0 8 1;
#X connect 15 0 9 0;
#X connect 16 0 6 0;
#X connect 17 0 5 1;
#X connect 18 0 17 0;
#X connect 19 0 16 0;
#X connect 20 0 19 0;
#X connect 21 0 11 1;
#X connect 22 0 21 1;
#X restore 49 27 pd logosc;
#X obj 48 62 *~;
#X obj 47 92 +~;
#N canvas 554 483 450 300 plastichorn 0;
#X obj 118 130 bp~ 1500 4;
#X obj 118 105 clip~ -0.2 0.2;
#X obj 118 80 inlet~;
#X obj 118 155 outlet~;
#X connect 0 0 3 0;
#X connect 1 0 0 0;
#X connect 2 0 1 0;
#X restore 47 166 pd plastichorn;
#N canvas 613 268 603 327 environment 0;
#X obj 367 82 delwrite~ d2 1000;
#X obj 366 129 delwrite~ d3 1000;
#X obj 367 35 delwrite~ d1 1000;
#X obj 128 201 *~ 0.1;
#X obj 240 163 delread~ d3 33;
#X obj 128 163 delread~ d2 121;
#X obj 16 163 delread~ d1 165;
#X obj 403 211 +~;
#X obj 223 237 send~ echo;
#X obj 453 161 receive~ echo;
#X obj 221 58 send~ dir;
#X obj 364 161 receive~ dir;
#X obj 403 235 outlet~;
#X obj 130 24 inlet~;
#X obj 364 185 *~ 0.7;
#X obj 453 186 *~ 0.5;
#X obj 19 237 send~ b1;
#X obj 87 237 send~ b2;
#X obj 154 237 send~ b3;
#X obj 367 12 receive~ b1;
#X obj 367 58 receive~ b2;
#X obj 366 107 receive~ b3;
#X obj 14 58 send~ b1;
#X obj 83 58 send~ b2;
#X obj 152 58 send~ b3;
#X connect 3 0 8 0;
#X connect 3 0 16 0;
#X connect 3 0 17 0;
#X connect 3 0 18 0;
#X connect 4 0 3 0;
#X connect 5 0 3 0;
#X connect 6 0 3 0;
#X connect 7 0 12 0;
#X connect 9 0 15 0;
#X connect 11 0 14 0;
#X connect 13 0 10 0;
#X connect 13 0 22 0;
#X connect 13 0 23 0;
#X connect 13 0 24 0;
#X connect 14 0 7 0;
#X connect 15 0 7 1;
#X connect 19 0 2 0;
#X connect 20 0 0 0;
#X connect 21 0 1 0;
#X restore 48 209 pd environment;
#X obj 49 251 *~;
#X obj 49 293 dac~;
#X obj 170 10 r sirenRate;
#N canvas 893 216 363 412 logosc~ 0;
#X obj 193 184 sig~ 2.71828;
#X obj 168 137 sig~ 1;
#X obj 168 161 -~;
#X obj 75 209 pow~;
#X obj 101 183 sig~ 2.71828;
#X obj 59 289 +~;
#X obj 130 63 *~ 2;
#X obj 75 132 sig~ 1;
#X obj 75 159 -~;
#X obj 184 112 -~ 1;
#X obj 59 237 sig~ 1;
#X obj 59 263 -~;
#X obj 59 335 outlet~ signal;
#X obj 59 313 -~ 1;
#X obj 91 111 min~ 1;
#X obj 184 89 max~ 1;
#X obj 130 41 phasor~ 3;
#X obj 167 228 sqrt~;
#X obj 130 17 inlet~ frequency;
#X obj 168 206 pow~;
#X connect 0 0 19 1;
#X connect 1 0 2 0;
#X connect 2 0 19 0;
#X connect 3 0 11 1;
#X connect 4 0 3 1;
#X connect 5 0 13 0;
#X connect 6 0 14 0;
#X connect 6 0 15 0;
#X connect 7 0 8 0;
#X connect 8 0 3 0;
#X connect 9 0 2 1;
#X connect 10 0 11 0;
#X connect 11 0 5 0;
#X connect 13 0 12 0;
#X connect 14 0 8 1;
#X connect 15 0 9 0;
#X connect 16 0 6 0;
#X connect 17 0 5 1;
#X connect 18 0 16 0;
#X connect 19 0 17 0;
#X restore 47 126 pd logosc~;
#X connect 0 0 4 1;
#X connect 1 0 5 1;
#X connect 2 0 8 1;
#X connect 3 0 4 0;
#X connect 4 0 5 0;
#X connect 5 0 11 0;
#X connect 6 0 7 0;
#X connect 7 0 8 0;
#X connect 8 0 9 0;
#X connect 8 0 9 1;
#X connect 10 0 3 0;
#X connect 11 0 6 0;
