#N canvas 793 241 450 652 10;
#X obj 171 90 lop~ 500;
#X obj 185 121 *~;
#X obj 185 155 *~ 10;
#X obj 170 192 *~ 80;
#X obj 169 221 +~ 40;
#X obj 169 257 phasor~;
#X obj 169 289 -~ 0.25;
#X obj 169 319 cos~;
#X obj 169 347 *~;
#X obj 168 376 max~ 0.35;
#X obj 167 407 -~ 0.35;
#X obj 168 445 *~ 0.5;
#X obj 167 478 hip~ 500;
#X obj 166 513 hip~ 500;
#X obj 166 548 *~;
#X obj 166 587 dac~;
#X obj 170 24 noise~;
#X obj 170 58 bp~;
#X obj 244 25 r rain_depth;
#X obj 267 50 r rain_rate;
#X obj 261 521 r rain_amp;
#X connect 0 0 1 0;
#X connect 0 0 1 1;
#X connect 0 0 3 0;
#X connect 1 0 2 0;
#X connect 2 0 8 1;
#X connect 3 0 4 0;
#X connect 4 0 5 0;
#X connect 5 0 6 0;
#X connect 6 0 7 0;
#X connect 7 0 8 0;
#X connect 8 0 9 0;
#X connect 9 0 10 0;
#X connect 10 0 11 0;
#X connect 11 0 12 0;
#X connect 12 0 13 0;
#X connect 13 0 14 0;
#X connect 14 0 15 0;
#X connect 14 0 15 1;
#X connect 16 0 17 0;
#X connect 17 0 0 0;
#X connect 18 0 17 1;
#X connect 19 0 17 1;
#X connect 20 0 14 1;
