#N canvas 577 121 450 449 10;
#X obj 92 141 f 0;
#X obj 137 141 + 1;
#X obj 92 177 mod 2;
#X obj 92 213 sig~;
#X obj 91 293 *~;
#X obj 90 382 dac~;
#X obj 105 253 osc~ 2800;
#X obj 92 103 metro 130;
#X obj 91 336 *~ 0.2;
#X text 159 102 *controlling the tempo*;
#X text 169 253 *controlling the pitch*;
#X text 135 335 *controlling the amplitude*;
#X obj 92 45 tgl 15 0 empty empty empty 17 7 0 10 -262144 -1 -1 0 1
;
#X connect 0 0 1 0;
#X connect 0 0 2 0;
#X connect 1 0 0 1;
#X connect 2 0 3 0;
#X connect 3 0 4 0;
#X connect 4 0 8 0;
#X connect 6 0 4 1;
#X connect 7 0 0 0;
#X connect 8 0 5 1;
#X connect 8 0 5 0;
#X connect 12 0 7 0;
