#N canvas 363 185 450 300 10;
#X obj 109 184 /;
#X floatatom 169 83 5 0 0 0 - - -;
#X obj 109 123 1;
#X obj 109 41 t b b;
#X obj 111 99 bng 15 250 50 0 empty empty empty 17 7 0 10 -262144 -1
-1;
#X obj 169 29 inlet;
#X obj 109 219 outlet;
#X connect 0 0 6 0;
#X connect 1 0 0 1;
#X connect 1 0 4 0;
#X connect 2 0 0 0;
#X connect 3 0 2 0;
#X connect 3 1 1 0;
#X connect 4 0 3 0;
#X connect 5 0 1 0;
