#N canvas 363 185 450 300 10;
#X obj 210 184 /;
#X floatatom 225 75 5 0 0 0 - - -;
#X obj 225 36 inlet;
#X obj 210 219 outlet;
#X obj 210 76 bng 15 250 50 0 empty empty empty 17 7 0 10 -262144 -1
-1;
#X floatatom 210 122 5 0 0 0 - - -;
#X obj 120 105 r invertValue;
#X connect 0 0 3 0;
#X connect 1 0 4 0;
#X connect 1 0 0 1;
#X connect 2 0 1 0;
#X connect 4 0 5 0;
#X connect 5 0 0 0;
#X connect 6 0 5 0;
