#N canvas 805 135 502 555 10;
#X obj 109 132 hsl 30 10 0.05 200 0 0 empty empty empty -2 -8 0 10
-262144 -1 -1 0 1;
#X text 102 116 rate;
#X obj 169 132 hsl 30 10 0 1 0 0 empty empty empty -2 -8 0 10 -262144
-1 -1 0 1;
#X text 164 116 depth;
#X obj 106 245 osc~;
#X obj 106 281 +~ 1;
#X obj 106 319 *~ 0.5;
#X obj 151 358 *~;
#X obj 151 408 +~;
#X obj 152 456 outlet~ signal;
#X obj 212 359 swap 1;
#X obj 220 391 -;
#X obj 106 74 inlet rate;
#X floatatom 106 165 5 0 0 1 Hz - -;
#X floatatom 170 165 5 0 0 1 % - -;
#X obj 250 146 * 100;
#X obj 247 189 inv;
#X floatatom 107 214 5 0 0 1 Seconds - -;
#X obj 190 74 inlet depth;
#X connect 0 0 13 0;
#X connect 0 0 4 0;
#X connect 2 0 7 1;
#X connect 2 0 10 0;
#X connect 2 0 15 0;
#X connect 4 0 5 0;
#X connect 5 0 6 0;
#X connect 6 0 7 0;
#X connect 7 0 8 0;
#X connect 8 0 9 0;
#X connect 10 0 11 0;
#X connect 10 1 11 1;
#X connect 11 0 8 1;
#X connect 12 0 0 0;
#X connect 13 0 16 0;
#X connect 15 0 14 0;
#X connect 16 0 17 0;
#X connect 18 0 2 0;
#X coords 0 555 1 554 115 135 0;
