#N canvas 595 358 450 367 10;
#X obj 116 166 *~;
#X obj 115 215 lop~ 500;
#X obj 116 26 noise~;
#X obj 246 149 lfo~;
#X obj 246 72 r windRate;
#X obj 267 108 r windDepth;
#X obj 115 252 *~;
#X obj 182 252 *~;
#X obj 34 235 r windAmp_1;
#X obj 244 235 r windAmp_2;
#X obj 116 297 dac~ 1;
#X obj 181 298 dac~ 2;
#X connect 0 0 1 0;
#X connect 1 0 6 0;
#X connect 1 0 7 0;
#X connect 2 0 0 0;
#X connect 3 0 0 1;
#X connect 4 0 3 0;
#X connect 5 0 3 1;
#X connect 6 0 10 0;
#X connect 7 0 11 0;
#X connect 8 0 6 1;
#X connect 9 0 7 1;
