#N canvas 345 501 450 300 10;
#N canvas 824 506 450 300 windspeed 1;
#X obj 70 67 +~ 1;
#X obj 69 100 *~ 0.25;
#X obj 70 166 +~;
#X obj 71 207 clip~ 0 1;
#X obj 72 247 outlet~;
#N canvas 1307 508 450 300 gust 1;
#X obj 57 24 noise~;
#X obj 57 57 lop~ 0.5;
#X obj 57 93 lop~ 0.5;
#X obj 58 134 hip~ 0;
#X obj 60 217 *~;
#X obj 163 26 inlet~;
#X obj 165 110 *~;
#X obj 166 153 -~ 0.12;
#X obj 61 260 outlet~;
#X obj 59 174 *~ 50;
#X obj 164 65 +~ 0.5;
#X connect 0 0 1 0;
#X connect 1 0 2 0;
#X connect 2 0 3 0;
#X connect 3 0 9 0;
#X connect 4 0 8 0;
#X connect 5 0 10 0;
#X connect 6 0 7 0;
#X connect 7 0 4 1;
#X connect 9 0 4 0;
#X connect 10 0 6 0;
#X connect 10 0 6 1;
#X restore 136 116 pd gust;
#X obj 136 149 +~;
#N canvas 822 130 450 300 squall 1;
#X obj 57 25 inlet~;
#X obj 56 58 max~ 0.4;
#X obj 55 89 -~ 0.4;
#X obj 55 124 *~ 8;
#X obj 55 167 *~;
#X obj 134 9 noise~;
#X obj 135 42 lop~ 3;
#X obj 135 77 lop~ 3;
#X obj 134 111 hip~ 0;
#X obj 134 151 *~ 20;
#X obj 88 203 outlet~;
#X connect 0 0 1 0;
#X connect 1 0 2 0;
#X connect 2 0 3 0;
#X connect 3 0 4 0;
#X connect 4 0 10 0;
#X connect 5 0 6 0;
#X connect 6 0 7 0;
#X connect 7 0 8 0;
#X connect 8 0 9 0;
#X connect 9 0 4 1;
#X restore 208 116 pd squall;
#X obj 70 34 osc~ 0.1;
#X connect 0 0 1 0;
#X connect 1 0 2 0;
#X connect 1 0 5 0;
#X connect 1 0 7 0;
#X connect 2 0 3 0;
#X connect 3 0 4 0;
#X connect 5 0 6 0;
#X connect 6 0 2 1;
#X connect 7 0 6 1;
#X connect 8 0 0 0;
#X restore 10 13 pd windspeed;
#X obj 264 63 noise~;
#X obj 186 23 vd~ a 0;
#X obj 187 66 +~ 0.2;
#X obj 188 106 *~;
#X obj 187 150 *~ 0.3;
#X obj 187 255 dac~;
#X obj 9 44 delwrite~ a 30000;
#X obj 187 188 fcpan 0.51;
#X obj 263 90 bp~;
#X obj 329 73 r w_speed;
#X obj 329 101 r w_level;
#X obj 186 224 *~;
#X obj 277 207 r w_Amp;
#X connect 0 0 7 0;
#X connect 1 0 9 0;
#X connect 2 0 3 0;
#X connect 3 0 4 0;
#X connect 4 0 5 0;
#X connect 5 0 8 0;
#X connect 8 0 12 0;
#X connect 9 0 4 1;
#X connect 10 0 9 1;
#X connect 11 0 9 2;
#X connect 12 0 6 0;
#X connect 12 0 6 1;
#X connect 13 0 12 1;
