#N canvas 0 0 519 384 10;
#X obj 162 25 inlet;
#X obj 163 54 t b b;
#X msg 163 88 1;
#X msg 206 87 0;
#X obj 163 147 moses 100;
#X obj 161 118 +;
#X obj 206 119 f;
#X obj 164 181 t f f;
#X obj 165 215 del;
#X obj 164 248 t b b;
#X obj 163 286 random 100;
#X obj 51 142 / 10;
#X obj 378 198 swap 100;
#X obj 380 227 -;
#X obj 378 260 / 100;
#X obj 261 248 f;
#X obj 302 248 + 1;
#X obj 260 279 mod 4;
#X obj 303 309 pack f f;
#X obj 302 343 outlet;
#X connect 0 0 1 0;
#X connect 1 0 2 0;
#X connect 1 1 3 0;
#X connect 2 0 5 0;
#X connect 3 0 6 0;
#X connect 4 0 7 0;
#X connect 5 0 4 0;
#X connect 5 0 6 0;
#X connect 6 0 5 1;
#X connect 7 0 8 0;
#X connect 7 1 12 0;
#X connect 8 0 9 0;
#X connect 9 0 10 0;
#X connect 9 1 15 0;
#X connect 10 0 11 0;
#X connect 11 0 5 0;
#X connect 12 0 13 0;
#X connect 12 1 13 1;
#X connect 13 0 14 0;
#X connect 14 0 18 1;
#X connect 15 0 16 0;
#X connect 15 0 17 0;
#X connect 16 0 15 1;
#X connect 17 0 18 0;
#X connect 18 0 19 0;
