#N canvas 144 177 450 557 10;
#X obj 171 46 t f f;
#X obj 170 82 swap 1;
#X obj 172 119 -;
#X obj 173 156 + 0.4;
#X obj 171 192 pow 5;
#X obj 169 235 * 200;
#X msg 168 271 1 \, 0 \$1 0;
#X obj 166 307 vline~;
#X obj 146 355 *~;
#X obj 70 314 noise~;
#X obj 279 78 * 1200;
#X obj 279 109 + 100;
#X obj 281 145 t f f;
#X obj 149 405 bp~ 1 3;
#X obj 278 403 bp~ 1 3;
#X obj 308 174 * 0.5;
#X obj 172 9 inlet;
#X obj 207 449 outlet~;
#X connect 0 0 1 0;
#X connect 0 1 10 0;
#X connect 1 0 2 0;
#X connect 1 1 2 1;
#X connect 2 0 3 0;
#X connect 3 0 4 0;
#X connect 4 0 5 0;
#X connect 5 0 6 0;
#X connect 6 0 7 0;
#X connect 7 0 8 1;
#X connect 8 0 13 0;
#X connect 8 0 14 0;
#X connect 9 0 8 0;
#X connect 10 0 11 0;
#X connect 11 0 12 0;
#X connect 12 0 13 1;
#X connect 12 1 15 0;
#X connect 13 0 17 0;
#X connect 14 0 17 0;
#X connect 15 0 14 1;
#X connect 16 0 0 0;
