#N canvas 104 377 450 351 10;
#X obj 150 65 Strike_Pattern;
#X obj 149 98 route 0 1 2 3;
#X obj 146 138 Strike_Sound;
#X obj 207 294 dac~;
#X obj 201 160 Strike_Sound;
#X obj 272 185 Strike_Sound;
#X obj 336 213 Strike_Sound;
#X obj 150 30 r On;
#X floatatom 41 78 5 0 0 0 - - On;
#X connect 0 0 1 0;
#X connect 1 0 2 0;
#X connect 1 1 4 0;
#X connect 1 2 5 0;
#X connect 1 3 6 0;
#X connect 2 0 3 0;
#X connect 2 0 3 1;
#X connect 4 0 3 0;
#X connect 4 0 3 1;
#X connect 5 0 3 0;
#X connect 5 0 3 1;
#X connect 6 0 3 0;
#X connect 6 0 3 1;
#X connect 7 0 0 0;
